<?xml version="1.0" encoding="UTF-8" standalone="no"?>
<svg
   xmlns:dc="http://purl.org/dc/elements/1.1/"
   xmlns:cc="http://creativecommons.org/ns#"
   xmlns:rdf="http://www.w3.org/1999/02/22-rdf-syntax-ns#"
   xmlns:svg="http://www.w3.org/2000/svg"
   xmlns="http://www.w3.org/2000/svg"
   xmlns:sodipodi="http://sodipodi.sourceforge.net/DTD/sodipodi-0.dtd"
   xmlns:inkscape="http://www.inkscape.org/namespaces/inkscape"
   sodipodi:docname="Hero.svg"
   inkscape:version="1.0 (6e3e5246a0, 2020-05-07)"
   id="svg8"
   version="1.1"
   viewBox="0 0 210 297"
   height="297mm"
   width="210mm">
  <defs
     id="defs2">
    <clipPath
       id="clipPath19"
       clipPathUnits="userSpaceOnUse">
      <g
         id="use21"
         inkscape:label="Clip">
        <path
           id="path141"
           style="fill:#000000;stroke-width:0.264583"
           d="M 182.9851,63.920074 A 27.789783,28.283272 0 0 1 155.19531,92.203346 27.789783,28.283272 0 0 1 127.40553,63.920074 27.789783,28.283272 0 0 1 155.19531,35.636803 27.789783,28.283272 0 0 1 182.9851,63.920074" />
      </g>
    </clipPath>
    <clipPath
       id="clipPath32"
       clipPathUnits="userSpaceOnUse">
      <g
         inkscape:label="Clip"
         id="use34">
        <g
           transform="translate(2.7555073,-12.048545)"
           clip-path="url(#clipPath19)"
           id="g137">
          <g
             id="g135"
             inkscape:label="Clip">
            <path
               id="path133"
               style="fill:#000000;stroke-width:0.264583"
               d="M 182.9851,63.920074 A 27.789783,28.283272 0 0 1 155.19531,92.203346 27.789783,28.283272 0 0 1 127.40553,63.920074 27.789783,28.283272 0 0 1 155.19531,35.636803 27.789783,28.283272 0 0 1 182.9851,63.920074" />
          </g>
        </g>
      </g>
    </clipPath>
    <clipPath
       id="clipPath41"
       clipPathUnits="userSpaceOnUse">
      <g
         id="use43"
         inkscape:label="Clip">
        <path
           id="path101"
           style="fill:#000000;fill-rule:evenodd;stroke-width:0.264583"
           d="M 60.899841,62.517544 H 152.17509 V 145.2878 H 60.899841 Z" />
      </g>
    </clipPath>
    <clipPath
       id="clipPath65"
       clipPathUnits="userSpaceOnUse">
      <g
         id="use67"
         inkscape:label="Clip">
        <g
           id="g129"
           clip-path="url(#clipPath32)">
          <g
             inkscape:label="Clip"
             id="g127">
            <g
               transform="translate(2.7555073,-12.048545)"
               clip-path="url(#clipPath19)"
               id="g125">
              <g
                 id="g123"
                 inkscape:label="Clip">
                <path
                   id="path121"
                   style="fill:#000000;stroke-width:0.264583"
                   d="M 182.9851,63.920074 A 27.789783,28.283272 0 0 1 155.19531,92.203346 27.789783,28.283272 0 0 1 127.40553,63.920074 27.789783,28.283272 0 0 1 155.19531,35.636803 27.789783,28.283272 0 0 1 182.9851,63.920074" />
              </g>
            </g>
          </g>
        </g>
      </g>
    </clipPath>
    <clipPath
       id="clipPath85"
       clipPathUnits="userSpaceOnUse">
      <g
         inkscape:label="Clip"
         id="use87">
        <g
           transform="translate(1.9570142,4.4248637)"
           clip-path="url(#clipPath65)"
           id="g117">
          <g
             id="g115"
             inkscape:label="Clip">
            <g
               id="g113"
               clip-path="url(#clipPath32)">
              <g
                 inkscape:label="Clip"
                 id="g111">
                <g
                   transform="translate(2.7555073,-12.048545)"
                   clip-path="url(#clipPath19)"
                   id="g109">
                  <g
                     id="g107"
                     inkscape:label="Clip">
                    <path
                       id="path105"
                       style="fill:#000000;stroke-width:0.264583"
                       d="M 182.9851,63.920074 A 27.789783,28.283272 0 0 1 155.19531,92.203346 27.789783,28.283272 0 0 1 127.40553,63.920074 27.789783,28.283272 0 0 1 155.19531,35.636803 27.789783,28.283272 0 0 1 182.9851,63.920074" />
                  </g>
                </g>
              </g>
            </g>
          </g>
        </g>
      </g>
    </clipPath>
  </defs>
  <sodipodi:namedview
     inkscape:window-maximized="1"
     inkscape:window-y="27"
     inkscape:window-x="72"
     inkscape:window-height="704"
     inkscape:window-width="1294"
     showgrid="false"
     inkscape:document-rotation="0"
     inkscape:current-layer="layer1"
     inkscape:document-units="mm"
     inkscape:cy="562.58602"
     inkscape:cx="400"
     inkscape:zoom="0.35"
     inkscape:pageshadow="2"
     inkscape:pageopacity="0.0"
     borderopacity="1.0"
     bordercolor="#666666"
     pagecolor="#ffffff"
     id="base">
    <inkscape:grid
       id="grid152"
       type="xygrid" />
  </sodipodi:namedview>
  <metadata
     id="metadata5">
    <rdf:RDF>
      <cc:Work
         rdf:about="">
        <dc:format>image/svg+xml</dc:format>
        <dc:type
           rdf:resource="http://purl.org/dc/dcmitype/StillImage" />
        <dc:title></dc:title>
      </cc:Work>
    </rdf:RDF>
  </metadata>
  <g
     id="layer1"
     inkscape:groupmode="layer"
     inkscape:label="Ebene 1">
    <path
       d="M 68.806218,35.482623 A 39.999999,39.999999 0 0 1 28.806076,75.482765 v 69.999865 a 39.999999,39.999999 0 0 1 40.000142,40.00014 h 69.999862 a 39.999999,39.999999 0 0 1 40.00014,-40.00014 V 75.482765 A 39.999999,39.999999 0 0 1 138.80608,35.482623 Z"
       style="fill:none;stroke-width:1;opacity:1;stroke:#ff0000;stroke-opacity:1;stroke-miterlimit:4;stroke-dasharray:none"
       id="rect1039" />
  </g>
</svg>
